<mxfile host="app.diagrams.net" agent="Mozilla/5.0 (Windows NT 10.0; Win64; x64) AppleWebKit/537.36 (KHTML, like Gecko) Chrome/131.0.0.0 Safari/537.36" version="25.0.1">
  <diagram name="Page-1" id="u-lcTgtPwTD9HsoGLBek">
    <mxGraphModel>
      <root>
        <mxCell id="0" />
        <mxCell id="1" parent="0" />
        <mxCell id="2" value="Footer" style="whiteSpace=wrap;strokeWidth=2;verticalAlign=top;" vertex="1" parent="1">
          <mxGeometry x="8" y="33" width="523" height="218" as="geometry" />
        </mxCell>
        <mxCell id="3" value="Terms and Conditions" style="whiteSpace=wrap;strokeWidth=2;" vertex="1" parent="2">
          <mxGeometry x="46" y="93" width="214" height="49" as="geometry" />
        </mxCell>
        <mxCell id="4" value="Privacy Policy" style="whiteSpace=wrap;strokeWidth=2;" vertex="1" parent="2">
          <mxGeometry x="335" y="43" width="159" height="49" as="geometry" />
        </mxCell>
        <mxCell id="5" value="Contact Us" style="whiteSpace=wrap;strokeWidth=2;" vertex="1" parent="2">
          <mxGeometry x="345" y="142" width="138" height="49" as="geometry" />
        </mxCell>
        <mxCell id="6" value="" style="curved=1;startArrow=none;endArrow=block;exitX=0.83;exitY=-0.01;entryX=0;entryY=0.5;" edge="1" parent="2" source="3" target="4">
          <mxGeometry relative="1" as="geometry">
            <Array as="points">
              <mxPoint x="297" y="68" />
            </Array>
          </mxGeometry>
        </mxCell>
        <mxCell id="7" value="" style="curved=1;startArrow=none;endArrow=block;exitX=0.83;exitY=0.99;entryX=0;entryY=0.5;" edge="1" parent="2" source="3" target="5">
          <mxGeometry relative="1" as="geometry">
            <Array as="points">
              <mxPoint x="297" y="167" />
            </Array>
          </mxGeometry>
        </mxCell>
        <mxCell id="8" value="Features" style="whiteSpace=wrap;strokeWidth=2;" vertex="1" parent="1">
          <mxGeometry x="504" y="524" width="531" height="99" as="geometry" />
        </mxCell>
        <mxCell id="9" value="Editorial" style="whiteSpace=wrap;strokeWidth=2;" vertex="1" parent="1">
          <mxGeometry x="1055" y="524" width="550" height="99" as="geometry" />
        </mxCell>
        <mxCell id="10" value="News Sections" style="whiteSpace=wrap;strokeWidth=2;" vertex="1" parent="1">
          <mxGeometry x="1625" y="524" width="1318" height="223" as="geometry" />
        </mxCell>
        <mxCell id="11" value="Home" style="whiteSpace=wrap;strokeWidth=2;" vertex="1" parent="1">
          <mxGeometry x="566" y="8" width="2341" height="466" as="geometry" />
        </mxCell>
        <mxCell id="12" value="Home" style="whiteSpace=wrap;strokeWidth=2;" vertex="1" parent="1">
          <mxGeometry x="1252" y="118" width="101" height="49" as="geometry" />
        </mxCell>
        <mxCell id="13" value="Top Stories" style="whiteSpace=wrap;strokeWidth=2;" vertex="1" parent="1">
          <mxGeometry x="1232" y="301" width="140" height="49" as="geometry" />
        </mxCell>
        <mxCell id="14" value="Latest News" style="whiteSpace=wrap;strokeWidth=2;" vertex="1" parent="1">
          <mxGeometry x="2261" y="400" width="147" height="49" as="geometry" />
        </mxCell>
        <mxCell id="15" value="Editorial" style="whiteSpace=wrap;strokeWidth=2;" vertex="1" parent="1">
          <mxGeometry x="1204" y="400" width="121" height="49" as="geometry" />
        </mxCell>
        <mxCell id="16" value="Features" style="whiteSpace=wrap;strokeWidth=2;" vertex="1" parent="1">
          <mxGeometry x="666" y="400" width="123" height="49" as="geometry" />
        </mxCell>
        <mxCell id="17" value="World News" style="whiteSpace=wrap;strokeWidth=2;" vertex="1" parent="1">
          <mxGeometry x="1660" y="549" width="145" height="49" as="geometry" />
        </mxCell>
        <mxCell id="18" value="US News" style="whiteSpace=wrap;strokeWidth=2;" vertex="1" parent="1">
          <mxGeometry x="1942" y="549" width="121" height="49" as="geometry" />
        </mxCell>
        <mxCell id="19" value="Politics" style="whiteSpace=wrap;strokeWidth=2;" vertex="1" parent="1">
          <mxGeometry x="2113" y="549" width="112" height="49" as="geometry" />
        </mxCell>
        <mxCell id="20" value="Business" style="whiteSpace=wrap;strokeWidth=2;" vertex="1" parent="1">
          <mxGeometry x="2275" y="549" width="120" height="49" as="geometry" />
        </mxCell>
        <mxCell id="21" value="Technology" style="whiteSpace=wrap;strokeWidth=2;" vertex="1" parent="1">
          <mxGeometry x="2445" y="549" width="141" height="49" as="geometry" />
        </mxCell>
        <mxCell id="22" value="Science" style="whiteSpace=wrap;strokeWidth=2;" vertex="1" parent="1">
          <mxGeometry x="2636" y="549" width="115" height="49" as="geometry" />
        </mxCell>
        <mxCell id="23" value="Health" style="whiteSpace=wrap;strokeWidth=2;" vertex="1" parent="1">
          <mxGeometry x="2801" y="549" width="108" height="49" as="geometry" />
        </mxCell>
        <mxCell id="24" value="Sports" style="whiteSpace=wrap;strokeWidth=2;" vertex="1" parent="1">
          <mxGeometry x="1669" y="673" width="105" height="49" as="geometry" />
        </mxCell>
        <mxCell id="25" value="Entertainment" style="whiteSpace=wrap;strokeWidth=2;" vertex="1" parent="1">
          <mxGeometry x="1824" y="673" width="164" height="49" as="geometry" />
        </mxCell>
        <mxCell id="26" value="Lifestyle" style="whiteSpace=wrap;strokeWidth=2;" vertex="1" parent="1">
          <mxGeometry x="2282" y="673" width="122" height="49" as="geometry" />
        </mxCell>
        <mxCell id="27" value="Opinion" style="whiteSpace=wrap;strokeWidth=2;" vertex="1" parent="1">
          <mxGeometry x="2454" y="673" width="115" height="49" as="geometry" />
        </mxCell>
        <mxCell id="28" value="Op-Ed" style="whiteSpace=wrap;strokeWidth=2;" vertex="1" parent="1">
          <mxGeometry x="1090" y="549" width="103" height="49" as="geometry" />
        </mxCell>
        <mxCell id="29" value="Analysis" style="whiteSpace=wrap;strokeWidth=2;" vertex="1" parent="1">
          <mxGeometry x="1243" y="549" width="118" height="49" as="geometry" />
        </mxCell>
        <mxCell id="30" value="Investigations" style="whiteSpace=wrap;strokeWidth=2;" vertex="1" parent="1">
          <mxGeometry x="1411" y="549" width="159" height="49" as="geometry" />
        </mxCell>
        <mxCell id="31" value="Interviews" style="whiteSpace=wrap;strokeWidth=2;" vertex="1" parent="1">
          <mxGeometry x="539" y="549" width="135" height="49" as="geometry" />
        </mxCell>
        <mxCell id="32" value="In-Depth" style="whiteSpace=wrap;strokeWidth=2;" vertex="1" parent="1">
          <mxGeometry x="723" y="549" width="122" height="49" as="geometry" />
        </mxCell>
        <mxCell id="33" value="Travel" style="whiteSpace=wrap;strokeWidth=2;" vertex="1" parent="1">
          <mxGeometry x="895" y="549" width="105" height="49" as="geometry" />
        </mxCell>
        <mxCell id="34" value="" style="curved=1;startArrow=none;endArrow=block;exitX=0.5;exitY=0.99;entryX=0.5;entryY=0;" edge="1" parent="1" source="12" target="13">
          <mxGeometry relative="1" as="geometry">
            <Array as="points" />
          </mxGeometry>
        </mxCell>
        <mxCell id="35" value="" style="curved=1;startArrow=none;endArrow=block;exitX=1;exitY=0.57;entryX=0.5;entryY=0;" edge="1" parent="1" source="13" target="14">
          <mxGeometry relative="1" as="geometry">
            <Array as="points">
              <mxPoint x="2335" y="375" />
            </Array>
          </mxGeometry>
        </mxCell>
        <mxCell id="36" value="" style="curved=1;startArrow=none;endArrow=block;exitX=0.37;exitY=1;entryX=0.5;entryY=0;" edge="1" parent="1" source="13" target="15">
          <mxGeometry relative="1" as="geometry">
            <Array as="points">
              <mxPoint x="1264" y="375" />
            </Array>
          </mxGeometry>
        </mxCell>
        <mxCell id="37" value="" style="curved=1;startArrow=none;endArrow=block;exitX=0;exitY=0.62;entryX=0.5;entryY=0;" edge="1" parent="1" source="13" target="16">
          <mxGeometry relative="1" as="geometry">
            <Array as="points">
              <mxPoint x="728" y="375" />
            </Array>
          </mxGeometry>
        </mxCell>
        <mxCell id="38" value="" style="curved=1;startArrow=none;endArrow=block;exitX=0;exitY=0.62;entryX=0.5;entryY=0;" edge="1" parent="1" source="14" target="17">
          <mxGeometry relative="1" as="geometry">
            <Array as="points">
              <mxPoint x="1733" y="474" />
            </Array>
          </mxGeometry>
        </mxCell>
        <mxCell id="39" value="" style="curved=1;startArrow=none;endArrow=block;exitX=0;exitY=0.72;entryX=0.5;entryY=0;" edge="1" parent="1" source="14" target="18">
          <mxGeometry relative="1" as="geometry">
            <Array as="points">
              <mxPoint x="2003" y="474" />
            </Array>
          </mxGeometry>
        </mxCell>
        <mxCell id="40" value="" style="curved=1;startArrow=none;endArrow=block;exitX=0;exitY=0.95;entryX=0.5;entryY=0;" edge="1" parent="1" source="14" target="19">
          <mxGeometry relative="1" as="geometry">
            <Array as="points">
              <mxPoint x="2169" y="474" />
            </Array>
          </mxGeometry>
        </mxCell>
        <mxCell id="41" value="" style="curved=1;startArrow=none;endArrow=block;exitX=0.5;exitY=1;entryX=0.5;entryY=0;" edge="1" parent="1" source="14" target="20">
          <mxGeometry relative="1" as="geometry">
            <Array as="points" />
          </mxGeometry>
        </mxCell>
        <mxCell id="42" value="" style="curved=1;startArrow=none;endArrow=block;exitX=1;exitY=0.91;entryX=0.5;entryY=0;" edge="1" parent="1" source="14" target="21">
          <mxGeometry relative="1" as="geometry">
            <Array as="points">
              <mxPoint x="2516" y="474" />
            </Array>
          </mxGeometry>
        </mxCell>
        <mxCell id="43" value="" style="curved=1;startArrow=none;endArrow=block;exitX=1;exitY=0.71;entryX=0.5;entryY=0;" edge="1" parent="1" source="14" target="22">
          <mxGeometry relative="1" as="geometry">
            <Array as="points">
              <mxPoint x="2694" y="474" />
            </Array>
          </mxGeometry>
        </mxCell>
        <mxCell id="44" value="" style="curved=1;startArrow=none;endArrow=block;exitX=1;exitY=0.64;entryX=0.5;entryY=0;" edge="1" parent="1" source="14" target="23">
          <mxGeometry relative="1" as="geometry">
            <Array as="points">
              <mxPoint x="2855" y="474" />
            </Array>
          </mxGeometry>
        </mxCell>
        <mxCell id="45" value="" style="curved=1;startArrow=none;endArrow=block;exitX=0;exitY=0.72;entryX=0.5;entryY=0;" edge="1" parent="1" source="18" target="24">
          <mxGeometry relative="1" as="geometry">
            <Array as="points">
              <mxPoint x="1722" y="623" />
            </Array>
          </mxGeometry>
        </mxCell>
        <mxCell id="46" value="" style="curved=1;startArrow=none;endArrow=block;exitX=0.11;exitY=1;entryX=0.5;entryY=0;" edge="1" parent="1" source="18" target="25">
          <mxGeometry relative="1" as="geometry">
            <Array as="points">
              <mxPoint x="1906" y="623" />
            </Array>
          </mxGeometry>
        </mxCell>
        <mxCell id="47" value="" style="curved=1;startArrow=none;endArrow=block;exitX=1;exitY=0.68;entryX=0.5;entryY=0;" edge="1" parent="1" source="18" target="26">
          <mxGeometry relative="1" as="geometry">
            <Array as="points">
              <mxPoint x="2343" y="623" />
            </Array>
          </mxGeometry>
        </mxCell>
        <mxCell id="48" value="" style="curved=1;startArrow=none;endArrow=block;exitX=1;exitY=0.62;entryX=0.5;entryY=0;" edge="1" parent="1" source="18" target="27">
          <mxGeometry relative="1" as="geometry">
            <Array as="points">
              <mxPoint x="2511" y="623" />
            </Array>
          </mxGeometry>
        </mxCell>
        <mxCell id="49" value="" style="curved=1;startArrow=none;endArrow=block;exitX=0;exitY=1;entryX=0.5;entryY=0;" edge="1" parent="1" source="15" target="28">
          <mxGeometry relative="1" as="geometry">
            <Array as="points">
              <mxPoint x="1142" y="474" />
            </Array>
          </mxGeometry>
        </mxCell>
        <mxCell id="50" value="" style="curved=1;startArrow=none;endArrow=block;exitX=0.65;exitY=1;entryX=0.5;entryY=0;" edge="1" parent="1" source="15" target="29">
          <mxGeometry relative="1" as="geometry">
            <Array as="points">
              <mxPoint x="1302" y="474" />
            </Array>
          </mxGeometry>
        </mxCell>
        <mxCell id="51" value="" style="curved=1;startArrow=none;endArrow=block;exitX=1;exitY=0.77;entryX=0.5;entryY=0;" edge="1" parent="1" source="15" target="30">
          <mxGeometry relative="1" as="geometry">
            <Array as="points">
              <mxPoint x="1491" y="474" />
            </Array>
          </mxGeometry>
        </mxCell>
        <mxCell id="52" value="" style="curved=1;startArrow=none;endArrow=block;exitX=0.01;exitY=1;entryX=0.5;entryY=0;" edge="1" parent="1" source="16" target="31">
          <mxGeometry relative="1" as="geometry">
            <Array as="points">
              <mxPoint x="606" y="474" />
            </Array>
          </mxGeometry>
        </mxCell>
        <mxCell id="53" value="" style="curved=1;startArrow=none;endArrow=block;exitX=0.73;exitY=1;entryX=0.5;entryY=0;" edge="1" parent="1" source="16" target="32">
          <mxGeometry relative="1" as="geometry">
            <Array as="points">
              <mxPoint x="784" y="474" />
            </Array>
          </mxGeometry>
        </mxCell>
        <mxCell id="54" value="" style="curved=1;startArrow=none;endArrow=block;exitX=1;exitY=0.78;entryX=0.5;entryY=0;" edge="1" parent="1" source="16" target="33">
          <mxGeometry relative="1" as="geometry">
            <Array as="points">
              <mxPoint x="948" y="474" />
            </Array>
          </mxGeometry>
        </mxCell>
      </root>
    </mxGraphModel>
  </diagram>
</mxfile>
